<?xml version="1.0" encoding="UTF-8" standalone="no"?>
<svg
   id="Layer_1"
   data-name="Layer 1"
   viewBox="0 0 63.999998 63.999998"
   version="1.1"
   sodipodi:docname="logo-biglinux.svg"
   width="64"
   height="64"
   inkscape:version="1.2.1 (9c6d41e410, 2022-07-14, custom)"
   xmlns:inkscape="http://www.inkscape.org/namespaces/inkscape"
   xmlns:sodipodi="http://sodipodi.sourceforge.net/DTD/sodipodi-0.dtd"
   xmlns:xlink="http://www.w3.org/1999/xlink"
   xmlns="http://www.w3.org/2000/svg"
   xmlns:svg="http://www.w3.org/2000/svg">
  <sodipodi:namedview
     id="namedview252"
     pagecolor="#ffffff"
     bordercolor="#000000"
     borderopacity="0.25"
     inkscape:showpageshadow="2"
     inkscape:pageopacity="0.0"
     inkscape:pagecheckerboard="0"
     inkscape:deskcolor="#d1d1d1"
     showgrid="false"
     inkscape:zoom="6.3706642"
     inkscape:cx="7.5345362"
     inkscape:cy="23.78088"
     inkscape:window-width="2560"
     inkscape:window-height="992"
     inkscape:window-x="1680"
     inkscape:window-y="0"
     inkscape:window-maximized="1"
     inkscape:current-layer="Layer_1" />
  <defs
     id="defs243">
    <style
       id="style234">.cls-1{fill:url(#linear-gradient);}.cls-2{fill:url(#linear-gradient-2);}.cls-3{fill:url(#linear-gradient-3);}</style>
    <linearGradient
       id="linear-gradient"
       x1="91.919998"
       y1="320.23999"
       x2="319.51999"
       y2="77.93"
       gradientUnits="userSpaceOnUse">
      <stop
         offset="0"
         stop-color="#2d85c6"
         id="stop236" />
      <stop
         offset="1"
         stop-color="#04bacc"
         id="stop238" />
    </linearGradient>
    <linearGradient
       id="linear-gradient-2"
       x1="165.60001"
       y1="389.44"
       x2="393.20001"
       y2="147.14"
       xlink:href="#linear-gradient"
       gradientTransform="matrix(0.12903394,0,0,0.12903394,-1.152273,-1.152273)" />
    <linearGradient
       id="linear-gradient-3"
       x1="147.03999"
       y1="372.01001"
       x2="374.63"
       y2="129.7"
       xlink:href="#linear-gradient"
       gradientTransform="matrix(0.12903394,0,0,0.12903394,-1.152273,-1.152273)" />
    <linearGradient
       inkscape:collect="always"
       xlink:href="#linear-gradient"
       id="linearGradient308"
       gradientUnits="userSpaceOnUse"
       x1="91.919998"
       y1="320.23999"
       x2="319.51999"
       y2="77.93"
       gradientTransform="matrix(0.12903394,0,0,0.12903394,-1.152273,-1.152273)" />
  </defs>
  <g
     id="g390"
     transform="translate(0.1195845,0.1195845)">
    <path
       class="cls-1"
       d="m 28.712632,24.867421 c 0.856786,0.04904 1.659376,-0.291617 2.420677,-0.64517 0.990981,-0.526459 1.925187,-1.310985 2.378095,-2.363902 a 2.9290704,2.9290704 0 0 0 0.158713,-2.503258 c -0.232262,-0.694203 -0.846463,-1.143241 -1.363889,-1.620666 -0.98711,-0.605169 -2.193578,-0.969045 -3.354883,-0.774204 -0.686461,-0.03871 -1.334211,0.158712 -1.947122,0.403876 a 5.8516892,5.8516892 0 0 0 -2.883909,2.387128 c -0.338069,0.736784 -0.708396,1.59486 -0.367746,2.397451 0.290326,1.120014 1.225822,1.952283 2.272287,2.380676 0.847754,0.312262 1.779379,0.503232 2.687777,0.338069 z"
       id="path245"
       style="fill:url(#linearGradient308);stroke-width:0.129034" />
    <path
       class="cls-2"
       d="m 38.859861,37.686943 c -1.700667,-1.640022 -3.303268,-3.541982 -3.909728,-5.867173 -0.289036,-1.107112 -0.258068,-2.268417 -0.34065,-3.409077 -0.30839,-0.923883 -0.934205,-1.820669 -1.912282,-2.144544 -0.625815,-0.357424 -1.36647,-0.414199 -2.064544,-0.527749 -1.367759,0.03613 -2.789713,0.672267 -3.467141,1.916154 -0.272263,0.516135 -0.350973,1.123886 -0.420651,1.700667 0.08645,1.590989 0.774203,3.096815 1.592278,4.44522 0.75614,1.144531 1.654216,2.214222 2.758747,3.056813 0.621943,0.652912 1.458082,1.038724 2.218092,1.514859 a 13.050493,13.050493 0 0 0 4.491672,1.59744 25.729367,25.729367 0 0 0 3.911019,0.436135 c -0.840011,-1.02582 -2.009058,-1.716151 -2.856812,-2.718745 z"
       id="path247"
       style="fill:url(#linear-gradient-2);stroke-width:0.129034" />
    <path
       class="cls-3"
       d="M 31.880416,0 C 14.273735,0 0,14.273735 0,31.880416 c 0,17.60668 14.273735,31.880415 31.880416,31.880415 17.60668,0 31.880415,-14.273735 31.880415,-31.880415 C 63.760831,14.273735 49.487096,0 31.880416,0 Z M 6.5084719,44.174769 C 5.6529769,43.510244 5.0581305,42.569587 4.4439289,41.683124 a 5.1768416,5.1768416 0 0 1 -0.406457,-0.756139 29.094573,29.094573 0 0 1 -1.1613053,-4.885225 9.8994839,9.8994839 0 0 0 1.1754991,2.009059 4.3148949,4.3148949 0 0 0 2.9548772,1.739377 c 0.972916,0.05549 1.9135733,-0.3071 2.7497133,-0.754848 1.0632398,-0.704526 2.0916408,-1.467117 2.9768138,-2.385838 0.477425,-0.375489 0.814203,-0.894205 1.300661,-1.283887 0.863237,-0.825818 1.539376,-1.850347 2.461968,-2.62068 0.743235,-0.856786 1.548407,-1.67099 2.463257,-2.313578 0.353553,-0.187099 0.747107,-0.369038 1.144531,-0.294198 0.60259,0.298068 0.483879,1.049046 0.713558,1.575505 0.08129,0.794848 0.09936,1.588407 0.169035,2.385837 -0.129034,2.037446 -0.585814,4.090376 -1.584537,5.876206 -0.277422,0.637427 -0.727752,1.174208 -1.061949,1.781959 -0.357424,0.470973 -0.802591,0.88001 -1.172919,1.352275 -1.236145,1.209048 -2.709713,2.277449 -4.433605,2.655518 -0.587105,0.258068 -1.234856,0.143229 -1.849057,0.233552 A 6.4116965,6.4116965 0 0 1 6.5084719,44.174769 Z M 58.363342,43.271532 a 8.1833325,8.1833325 0 0 1 -0.189681,0.969044 29.193929,29.193929 0 0 1 -47.414811,7.796231 8.7846306,8.7846306 0 0 0 1.806475,0.354844 L 15.09439,52.23681 c 2.551001,-0.478716 4.869741,-1.894218 6.65041,-3.758759 0.445167,-0.330326 0.754848,-0.780656 1.06453,-1.230984 0.794849,-0.851624 1.336792,-1.905831 1.935509,-2.905844 1.041304,-2.215513 1.845185,-4.621996 1.818088,-7.082673 0.15355,-0.616782 0.0078,-1.259371 -0.120002,-1.867121 -0.247745,-2.01293 -1.229693,-3.890373 -2.606485,-5.367812 -0.52775,-0.616782 -1.237436,-1.024529 -1.892928,-1.492923 -1.474859,-0.830978 -3.072298,-1.629699 -4.793611,-1.71357 -1.258081,-0.22581 -2.483903,0.352262 -3.516175,1.012917 -0.72388,0.429682 -1.254209,1.095497 -1.882605,1.637439 -0.665816,0.774204 -1.370341,1.548408 -2.2400293,2.108415 a 9.0517308,9.0517308 0 0 1 -1.136789,0.344521 C 7.8710703,31.824931 7.3420312,31.694607 6.9665424,31.334602 6.600086,31.062341 6.4375033,30.627496 6.1923388,30.257169 5.805237,29.653289 5.6116861,28.942312 5.4323288,28.253271 5.1045827,27.293259 5.0852276,26.257116 4.8426438,25.270007 c -0.010323,-0.98711 -0.2025834,-1.981961 -0.045162,-2.957458 -0.069679,-0.64517 0.029678,-1.276146 0.089034,-1.916154 0,-0.04 0.014194,-0.08129 0.020646,-0.121292 C 9.3846385,9.8633544 19.722838,2.5690657 31.768156,2.5690657 a 29.111347,29.111347 0 0 1 21.338342,9.2762503 8.4414003,8.4414003 0 0 0 -2.412934,-0.566459 l -2.529066,0.15355 c -2.552291,0.478716 -4.869741,1.894218 -6.650409,3.758759 -0.445167,0.331617 -0.754848,0.780656 -1.06582,1.230984 -0.793558,0.851624 -1.336792,1.905831 -1.935509,2.905844 -1.041304,2.215513 -1.845185,4.623286 -1.818088,7.083963 -0.15355,0.615492 0,1.259371 0.120002,1.867121 0.247744,2.012929 1.229693,3.889083 2.606485,5.366522 0.527749,0.618072 1.237436,1.024529 1.894218,1.492923 1.474858,0.830978 3.071008,1.629698 4.793611,1.71357 1.25679,0.225809 2.482613,-0.352263 3.514885,-1.012917 0.72388,-0.428392 1.254209,-1.095497 1.882605,-1.63744 0.665815,-0.774204 1.37034,-1.548408 2.240029,-2.108414 A 9.5743184,9.5743184 0 0 1 54.883296,31.7488 c 0.503232,0.09549 1.032272,0.22581 1.40776,0.585815 0.366456,0.272261 0.52904,0.707106 0.774204,1.077433 0.387102,0.60388 0.579362,1.316146 0.75872,2.005188 0.327746,0.958722 0.347101,1.996155 0.589684,2.981975 0.01161,0.987109 0.203875,1.981961 0.04645,2.958748 0.06193,0.642588 -0.03742,1.276145 -0.09678,1.914863 z M 56.257507,23.880311 c -0.972915,-0.05548 -1.913573,0.307101 -2.749713,0.756139 -1.063239,0.704526 -2.09035,1.467116 -2.976813,2.385838 -0.476135,0.374198 -0.812913,0.892915 -1.300662,1.282597 -0.863237,0.825817 -1.538085,1.850347 -2.461968,2.620679 -0.741944,0.856785 -1.548407,1.677442 -2.463257,2.313579 -0.353553,0.187099 -0.747107,0.369037 -1.144531,0.294197 -0.601299,-0.296778 -0.483878,-1.049045 -0.713558,-1.575504 -0.08129,-0.794849 -0.09935,-1.588408 -0.167744,-2.385837 0.129034,-2.037447 0.585814,-4.090376 1.583246,-5.874916 0.278713,-0.637427 0.727752,-1.175499 1.061949,-1.783249 0.358714,-0.470974 0.803882,-0.878721 1.172919,-1.352276 1.236145,-1.207757 2.709713,-2.277449 4.434896,-2.655518 0.587105,-0.258068 1.233565,-0.143228 1.847766,-0.232261 a 6.4013737,6.4013737 0 0 1 4.375542,1.819378 c 0.856785,0.665815 1.45034,1.605183 2.064542,2.491645 0.423231,0.615493 0.60517,1.400019 1.089047,1.97551 a 29.032637,29.032637 0 0 1 0.903238,4.727804 11.041434,11.041434 0 0 0 -1.598731,-3.071008 4.3200563,4.3200563 0 0 0 -2.956168,-1.736797 z"
       id="path249"
       style="fill:url(#linear-gradient-3);stroke-width:0.129034" />
  </g>
</svg>
