<?xml version="1.0" encoding="UTF-8" standalone="no"?>
<!-- Created with Inkscape (http://www.inkscape.org/) -->

<svg
   width="2560"
   height="1600"
   viewBox="0 0 677.33292 423.33333"
   version="1.1"
   id="svg5"
   xml:space="preserve"
   inkscape:version="1.2.1 (9c6d41e410, 2022-07-14, custom)"
   sodipodi:docname="wallpaper-biglogin-wm.svg"
   inkscape:export-filename="wallpaper-biglogin-wm.jpg"
   inkscape:export-xdpi="96"
   inkscape:export-ydpi="96"
   xmlns:inkscape="http://www.inkscape.org/namespaces/inkscape"
   xmlns:sodipodi="http://sodipodi.sourceforge.net/DTD/sodipodi-0.dtd"
   xmlns="http://www.w3.org/2000/svg"
   xmlns:svg="http://www.w3.org/2000/svg"><sodipodi:namedview
     id="namedview7"
     pagecolor="#ffffff"
     bordercolor="#000000"
     borderopacity="0.25"
     inkscape:showpageshadow="2"
     inkscape:pageopacity="0.0"
     inkscape:pagecheckerboard="0"
     inkscape:deskcolor="#d1d1d1"
     inkscape:document-units="mm"
     showgrid="false"
     inkscape:zoom="0.35355339"
     inkscape:cx="709.9352"
     inkscape:cy="680.23672"
     inkscape:window-width="2560"
     inkscape:window-height="992"
     inkscape:window-x="1680"
     inkscape:window-y="0"
     inkscape:window-maximized="1"
     inkscape:current-layer="layer1" /><defs
     id="defs2" /><g
     inkscape:label="Camada 1"
     inkscape:groupmode="layer"
     id="layer1"><rect
       style="fill:#505075;fill-opacity:1;stroke-width:1.4801;stroke-linecap:round;stroke-linejoin:round"
       id="rect366"
       width="677.33276"
       height="423.32159"
       x="0.00027752618"
       y="0.0058695474"
       rx="0"
       ry="0" /><path
       id="path654"
       style="opacity:0.7;fill:#000000;stroke-width:0.107083"
       class="cls-2"
       d="m 356.44448,108.15573 c -0.60403,-8.7e-4 -1.24246,0.0494 -1.92241,0.16519 -10.87966,1.81502 -10.40964,14.46626 -10.40964,14.46626 0,0 -0.0107,5.6019 5.22508,8.43422 4.35186,2.50576 6.85305,-0.2054 7.28142,-0.63249 0.42841,-0.42731 9.27053,-11.49692 7.84851,9.531 0,0 3.11397,-3.38781 3.30884,-11.45649 0.19495,-8.06872 -4.98823,-8.55888 -4.98823,-8.55888 0,0 -2.29316,-0.57504 -6.84523,4.34332 -4.55213,4.91831 -4.86985,4.6985 -4.86985,4.6985 0,0 -1.2854,0.90577 -1.43639,-1.37407 -0.1509,-2.27977 -0.64455,-9.18975 6.30624,-12.93021 6.95074,-3.7404 10.3255,5.42134 10.3255,5.42134 0,0 -0.76394,-12.09173 -9.82384,-12.10765 z m -19.49506,5.22817 a 3.6943678,4.9268945 77.92 0 0 -1.38649,0.14323 3.6943678,4.9268945 77.92 0 0 -4.0442,4.64551 3.6943678,4.9268945 77.92 0 0 5.58957,2.57982 3.6943678,4.9268945 77.92 0 0 4.04418,-4.64241 3.6943678,4.9268945 77.92 0 0 -4.20306,-2.72625 z m -23.02827,1.54537 c 0,0 -3.11089,3.392 -3.30576,11.45962 -0.19494,8.06763 4.98823,8.56509 4.98823,8.56509 0,0 2.29003,0.57506 6.84216,-4.3433 4.55205,-4.91833 4.87292,-4.6985 4.87292,-4.6985 0,0 1.28541,-0.90577 1.43639,1.37407 0.1509,2.27977 0.64251,9.1898 -6.30931,12.93021 -6.95185,3.7404 -10.3255,-5.42134 -10.3255,-5.42134 0,0 0.86651,13.75653 11.74939,11.94249 10.88281,-1.81396 10.40643,-14.46627 10.40643,-14.46627 0,0 0.0107,-5.59649 -5.22816,-8.4342 -4.35186,-2.50576 -6.8531,0.20209 -7.28141,0.62934 -0.42842,0.42732 -9.26635,11.49713 -7.84538,-9.53721 z m 24.33372,6.74555 a 3.7682554,3.7682554 0 0 0 -3.64849,4.92282 c 0,0 2.20379,8.72496 13.9958,9.00442 0,0 -6.81159,-4.87762 -6.65207,-10.44697 a 3.7682554,3.7682554 0 0 0 -3.69524,-3.48027 z" /><path
       id="path531"
       style="fill:#ffffff;stroke-width:0.107083"
       class="cls-2"
       d="m 355.91531,107.62659 c -0.60403,-8.7e-4 -1.24246,0.0494 -1.92241,0.16519 -10.87966,1.81502 -10.40964,14.46626 -10.40964,14.46626 0,0 -0.0107,5.6019 5.22508,8.43422 4.35186,2.50576 6.85305,-0.2054 7.28142,-0.63249 0.42841,-0.42731 9.27053,-11.49692 7.84851,9.531 0,0 3.11397,-3.38781 3.30884,-11.45649 0.19495,-8.06872 -4.98823,-8.55888 -4.98823,-8.55888 0,0 -2.29316,-0.57504 -6.84523,4.34332 -4.55213,4.91831 -4.86985,4.6985 -4.86985,4.6985 0,0 -1.2854,0.90577 -1.43639,-1.37407 -0.1509,-2.27977 -0.64455,-9.18975 6.30624,-12.93021 6.95074,-3.7404 10.3255,5.42134 10.3255,5.42134 0,0 -0.76394,-12.09173 -9.82384,-12.10765 z m -19.49506,5.22817 a 3.6943678,4.9268945 77.92 0 0 -1.38649,0.14323 3.6943678,4.9268945 77.92 0 0 -4.0442,4.64551 3.6943678,4.9268945 77.92 0 0 5.58957,2.57982 3.6943678,4.9268945 77.92 0 0 4.04418,-4.64241 3.6943678,4.9268945 77.92 0 0 -4.20306,-2.72625 z m -23.02827,1.54537 c 0,0 -3.11089,3.392 -3.30576,11.45962 -0.19494,8.06763 4.98823,8.56509 4.98823,8.56509 0,0 2.29003,0.57506 6.84216,-4.3433 4.55205,-4.91833 4.87292,-4.6985 4.87292,-4.6985 0,0 1.28541,-0.90577 1.43639,1.37407 0.1509,2.27977 0.64251,9.1898 -6.30931,12.93021 -6.95185,3.7404 -10.3255,-5.42134 -10.3255,-5.42134 0,0 0.86651,13.75653 11.74939,11.94249 10.88281,-1.81396 10.40643,-14.46627 10.40643,-14.46627 0,0 0.0107,-5.59649 -5.22816,-8.4342 -4.35186,-2.50576 -6.8531,0.20209 -7.28141,0.62934 -0.42842,0.42732 -9.26635,11.49713 -7.84538,-9.53721 z m 24.33372,6.74555 a 3.7682554,3.7682554 0 0 0 -3.64849,4.92282 c 0,0 2.20379,8.72496 13.9958,9.00442 0,0 -6.81159,-4.87762 -6.65207,-10.44697 a 3.7682554,3.7682554 0 0 0 -3.69524,-3.48027 z" /></g></svg>
